<?xml version="1.0" encoding="us-ascii" standalone="no"?><svg xmlns="http://www.w3.org/2000/svg" xmlns:xlink="http://www.w3.org/1999/xlink" contentStyleType="text/css" height="882px" preserveAspectRatio="none" style="width:773px;height:882px;background:#FFFFFF;" version="1.1" viewBox="0 0 773 882" width="773px" zoomAndPan="magnify"><defs/><g><!--cluster pkg_PriseDeServices--><g id="cluster_pkg_PriseDeServices"><path d="M202.5,6 L354.5,6 A3.75,3.75 0 0 1 357,8.5 L364,29.6094 L763.5,29.6094 A2.5,2.5 0 0 1 766,32.1094 L766,872.5 A2.5,2.5 0 0 1 763.5,875 L202.5,875 A2.5,2.5 0 0 1 200,872.5 L200,8.5 A2.5,2.5 0 0 1 202.5,6 " fill="none" style="stroke:#000000;stroke-width:1.5;"/><line style="stroke:#000000;stroke-width:1.5;" x1="200" x2="364" y1="29.6094" y2="29.6094"/><text fill="#000000" font-family="sans-serif" font-size="14" font-weight="bold" lengthAdjust="spacing" textLength="151" x="204" y="22.5332">pkg_PriseDeServices</text></g><g id="elem_Naviguer par &#233;tablissement"><ellipse cx="320.9905" cy="559.8981" fill="#F1F1F1" rx="104.9905" ry="23.3981" style="stroke:#181818;stroke-width:0.5;"/><text fill="#000000" font-family="sans-serif" font-size="14" lengthAdjust="spacing" textLength="172" x="234.9905" y="563.6266">Naviguer par &#233;tablissement</text></g><g id="elem_Gestion personnel"><ellipse cx="321.1887" cy="637.0377" fill="#F1F1F1" rx="80.6887" ry="18.5377" style="stroke:#181818;stroke-width:0.5;"/><text fill="#000000" font-family="sans-serif" font-size="14" lengthAdjust="spacing" textLength="116" x="262.5015" y="640.9661">Gestion personnel</text></g><g id="elem_Gestion categories"><ellipse cx="320.9202" cy="251.784" fill="#F1F1F1" rx="81.9202" ry="18.784" style="stroke:#181818;stroke-width:0.5;"/><text fill="#000000" font-family="sans-serif" font-size="14" lengthAdjust="spacing" textLength="119" x="261.2512" y="255.5629">Gestion categories</text></g><g id="elem_Ajouter des personnels"><ellipse cx="638.4382" cy="521.0876" fill="#F1F1F1" rx="93.4382" ry="21.0876" style="stroke:#181818;stroke-width:0.5;"/><text fill="#000000" font-family="sans-serif" font-size="14" lengthAdjust="spacing" textLength="146" x="565.4382" y="524.8162">Ajouter des personnels</text></g><g id="elem_Modifier des personnels"><ellipse cx="638.63" cy="443.026" fill="#F1F1F1" rx="95.63" ry="21.526" style="stroke:#181818;stroke-width:0.5;"/><text fill="#000000" font-family="sans-serif" font-size="14" lengthAdjust="spacing" textLength="151" x="563.13" y="446.7545">Modifier des personnels</text></g><g id="elem_Consulter des personnels"><ellipse cx="638.5042" cy="836.0008" fill="#F1F1F1" rx="100.5042" ry="22.5008" style="stroke:#181818;stroke-width:0.5;"/><text fill="#000000" font-family="sans-serif" font-size="14" lengthAdjust="spacing" textLength="162" x="557.5042" y="839.7293">Consulter des personnels</text></g><g id="elem_Exporter personnels"><ellipse cx="638.2698" cy="674.954" fill="#F1F1F1" rx="85.2698" ry="19.454" style="stroke:#181818;stroke-width:0.5;"/><text fill="#000000" font-family="sans-serif" font-size="14" lengthAdjust="spacing" textLength="127" x="574.7698" y="678.6825">Exporter personnels</text></g><g id="elem_Importer des personnels"><ellipse cx="638.511" cy="599.2022" fill="#F1F1F1" rx="96.511" ry="21.7022" style="stroke:#181818;stroke-width:0.5;"/><text fill="#000000" font-family="sans-serif" font-size="14" lengthAdjust="spacing" textLength="153" x="562.011" y="602.9307">Importer des personnels</text></g><g id="elem_imprimer attestation de travail"><ellipse cx="638.347" cy="754.1694" fill="#F1F1F1" rx="111.347" ry="24.6694" style="stroke:#181818;stroke-width:0.5;"/><text fill="#000000" font-family="sans-serif" font-size="14" lengthAdjust="spacing" textLength="186" x="545.347" y="757.8979">imprimer attestation de travail</text></g><g id="elem_Ajouter des categories"><ellipse cx="638.6965" cy="140.2393" fill="#F1F1F1" rx="91.6965" ry="20.7393" style="stroke:#181818;stroke-width:0.5;"/><text fill="#000000" font-family="sans-serif" font-size="14" lengthAdjust="spacing" textLength="142" x="567.6965" y="143.9678">Ajouter des categories</text></g><g id="elem_Modifier des categories"><ellipse cx="638.3753" cy="63.1751" fill="#F1F1F1" rx="93.8753" ry="21.1751" style="stroke:#181818;stroke-width:0.5;"/><text fill="#000000" font-family="sans-serif" font-size="14" lengthAdjust="spacing" textLength="147" x="564.8753" y="66.9036">Modifier des categories</text></g><g id="elem_Consulter des categories"><ellipse cx="638.7239" cy="364.1448" fill="#F1F1F1" rx="98.7239" ry="22.1448" style="stroke:#181818;stroke-width:0.5;"/><text fill="#000000" font-family="sans-serif" font-size="14" lengthAdjust="spacing" textLength="158" x="559.7239" y="367.8733">Consulter des categories</text></g><g id="elem_Exporter categories"><ellipse cx="638.5873" cy="288.1175" fill="#F1F1F1" rx="83.5873" ry="19.1175" style="stroke:#181818;stroke-width:0.5;"/><text fill="#000000" font-family="sans-serif" font-size="14" lengthAdjust="spacing" textLength="123" x="577.0873" y="291.846">Exporter categories</text></g><g id="elem_Importer categories"><ellipse cx="638.669" cy="215.0338" fill="#F1F1F1" rx="83.169" ry="19.0338" style="stroke:#181818;stroke-width:0.5;"/><text fill="#000000" font-family="sans-serif" font-size="14" lengthAdjust="spacing" textLength="122" x="577.669" y="218.7623">Importer categories</text></g><!--entity directeur--><g id="elem_directeur"><ellipse cx="79.5" cy="606.5" fill="#F1F1F1" rx="8" ry="8" style="stroke:#181818;stroke-width:0.5;"/><path d="M79.5,614.5 L79.5,641.5 M66.5,622.5 L92.5,622.5 M79.5,641.5 L66.5,656.5 M79.5,641.5 L92.5,656.5 " fill="none" style="stroke:#181818;stroke-width:0.5;"/><text fill="#000000" font-family="sans-serif" font-size="14" lengthAdjust="spacing" textLength="58" x="50.5" y="672.5332">Directeur</text></g><!--entity responsableFormation--><g id="elem_responsableFormation"><ellipse cx="79.5" cy="719.5" fill="#F1F1F1" rx="8" ry="8" style="stroke:#181818;stroke-width:0.5;"/><path d="M79.5,727.5 L79.5,754.5 M66.5,735.5 L92.5,735.5 M79.5,754.5 L66.5,769.5 M79.5,754.5 L92.5,769.5 " fill="none" style="stroke:#181818;stroke-width:0.5;"/><text fill="#000000" font-family="sans-serif" font-size="14" lengthAdjust="spacing" textLength="147" x="6" y="785.5332">ResponsableFormation</text></g><!--link directeur to Naviguer par ?tablissement--><g id="link_directeur_Naviguer par &#233;tablissement"><path d="M108.91,627.81 C131.44,620.52 163.73,610.09 192,601 C214.21,593.86 238.6,586.04 260.08,579.16 " fill="none" id="directeur-Naviguer par &#233;tablissement" style="stroke:#181818;stroke-width:1.0;"/></g><!--link directeur to Gestion personnel--><g id="link_directeur_Gestion personnel"><path d="M108.91,637 C141.13,637 195.06,637 240.34,637 " fill="none" id="directeur-Gestion personnel" style="stroke:#181818;stroke-width:1.0;"/></g><!--link directeur to Gestion categories--><g id="link_directeur_Gestion categories"><path d="M104.78,597.97 C155.44,516.53 270.79,331.1 308.11,271.11 " fill="none" id="directeur-Gestion categories" style="stroke:#181818;stroke-width:1.0;"/></g><!--reverse link Gestion personnel to Ajouter des personnels--><g id="link_Gestion personnel_Ajouter des personnels"><path d="M373.1676,619.8898 C391.4276,613.6498 406.95,608.16 426,601 C471.35,583.96 481.7,577.18 527,560 C546.31,552.68 567.68,545.03 586.43,538.47 " fill="none" id="Gestion personnel-backto-Ajouter des personnels" style="stroke:#181818;stroke-width:1.0;stroke-dasharray:7.0,7.0;"/><polygon fill="#181818" points="367.49,621.83,377.2999,622.7048,372.2214,620.2131,374.713,615.1346,367.49,621.83" style="stroke:#181818;stroke-width:1.0;"/><text fill="#000000" font-family="sans-serif" font-size="13" lengthAdjust="spacing" textLength="39" x="457" y="569.4951">extend</text></g><!--reverse link Gestion personnel to Modifier des personnels--><g id="link_Gestion personnel_Modifier des personnels"><path d="M386.9023,622.7835 C402.6823,617.4335 413.2,611.75 426,601 C447.03,583.35 438.99,568.55 456,547 C482.51,513.42 490.31,504.01 527,482 C542.27,472.84 560,465.39 576.74,459.55 " fill="none" id="Gestion personnel-backto-Modifier des personnels" style="stroke:#181818;stroke-width:1.0;stroke-dasharray:7.0,7.0;"/><polygon fill="#181818" points="381.22,624.71,391.0278,625.6084,385.9553,623.1046,388.4591,618.032,381.22,624.71" style="stroke:#181818;stroke-width:1.0;"/><text fill="#000000" font-family="sans-serif" font-size="13" lengthAdjust="spacing" textLength="39" x="457" y="499.4951">extend</text></g><!--reverse link Gestion personnel to Consulter des personnels--><g id="link_Gestion personnel_Consulter des personnels"><path d="M345.3032,659.1065 C379.8232,691.2165 452.04,754.71 527,796 C542.64,804.61 560.49,812.01 577.23,818.02 " fill="none" id="Gestion personnel-backto-Consulter des personnels" style="stroke:#181818;stroke-width:1.0;stroke-dasharray:7.0,7.0;"/><polygon fill="#181818" points="340.91,655.02,344.7755,664.0786,344.571,658.4254,350.2242,658.221,340.91,655.02" style="stroke:#181818;stroke-width:1.0;"/><text fill="#000000" font-family="sans-serif" font-size="13" lengthAdjust="spacing" textLength="39" x="457" y="750.4951">extend</text></g><!--reverse link Gestion personnel to Exporter personnels--><g id="link_Gestion personnel_Exporter personnels"><path d="M398.757,646.2471 C449.267,652.3271 511.11,659.78 562.53,665.97 " fill="none" id="Gestion personnel-backto-Exporter personnels" style="stroke:#181818;stroke-width:1.0;stroke-dasharray:7.0,7.0;"/><polygon fill="#181818" points="392.8,645.53,401.2575,650.5769,397.7642,646.1275,402.2135,642.6343,392.8,645.53" style="stroke:#181818;stroke-width:1.0;"/><text fill="#000000" font-family="sans-serif" font-size="13" lengthAdjust="spacing" textLength="39" x="457" y="650.4951">extend</text></g><!--reverse link Gestion personnel to Importer des personnels--><g id="link_Gestion personnel_Importer des personnels"><path d="M398.757,627.7528 C446.267,622.0328 503.12,615.18 553.21,609.15 " fill="none" id="Gestion personnel-backto-Importer des personnels" style="stroke:#181818;stroke-width:1.0;stroke-dasharray:7.0,7.0;"/><polygon fill="#181818" points="392.8,628.47,402.2136,631.3655,397.7642,627.8723,401.2573,623.4229,392.8,628.47" style="stroke:#181818;stroke-width:1.0;"/><text fill="#000000" font-family="sans-serif" font-size="13" lengthAdjust="spacing" textLength="39" x="457" y="613.4951">extend</text></g><!--reverse link Gestion personnel to imprimer attestation de travail--><g id="link_Gestion personnel_imprimer attestation de travail"><path d="M369.8458,654.7459 C425.6758,675.4459 518.62,709.91 580.87,733 " fill="none" id="Gestion personnel-backto-imprimer attestation de travail" style="stroke:#181818;stroke-width:1.0;stroke-dasharray:7.0,7.0;"/><polygon fill="#181818" points="364.22,652.66,371.2681,659.5393,368.9081,654.3982,374.0492,652.0383,364.22,652.66" style="stroke:#181818;stroke-width:1.0;"/><text fill="#000000" font-family="sans-serif" font-size="13" lengthAdjust="spacing" textLength="39" x="457" y="685.4951">extend</text></g><!--reverse link Gestion categories to Ajouter des categories--><g id="link_Gestion categories_Ajouter des categories"><path d="M371.5569,233.8743 C413.0169,218.7543 471.33,197.62 527,178 C546.71,171.05 568.44,163.55 587.39,157.05 " fill="none" id="Gestion categories-backto-Ajouter des categories" style="stroke:#181818;stroke-width:1.0;stroke-dasharray:7.0,7.0;"/><polygon fill="#181818" points="365.92,235.93,375.7457,236.6044,370.6174,234.2169,373.0048,229.0886,365.92,235.93" style="stroke:#181818;stroke-width:1.0;"/><text fill="#000000" font-family="sans-serif" font-size="13" lengthAdjust="spacing" textLength="39" x="457" y="186.4951">extend</text></g><!--reverse link Gestion categories to Modifier des categories--><g id="link_Gestion categories_Modifier des categories"><path d="M347.2854,229.6419 C382.8354,198.8519 454.06,140.48 527,102 C543.73,93.17 562.89,85.61 580.51,79.56 " fill="none" id="Gestion categories-backto-Modifier des categories" style="stroke:#181818;stroke-width:1.0;stroke-dasharray:7.0,7.0;"/><polygon fill="#181818" points="342.75,233.57,352.1718,230.7014,346.5295,230.2966,346.9343,224.6542,342.75,233.57" style="stroke:#181818;stroke-width:1.0;"/><text fill="#000000" font-family="sans-serif" font-size="13" lengthAdjust="spacing" textLength="39" x="457" y="116.4951">extend</text></g><!--reverse link Gestion categories to Consulter des categories--><g id="link_Gestion categories_Consulter des categories"><path d="M363.6642,271.5704 C390.3642,283.8104 422.29,297.74 456,310 C494.77,324.1 539.15,337.36 574.32,347.2 " fill="none" id="Gestion categories-backto-Consulter des categories" style="stroke:#181818;stroke-width:1.0;stroke-dasharray:7.0,7.0;"/><polygon fill="#181818" points="358.21,269.07,364.7244,276.4567,362.7552,271.1536,368.0582,269.1844,358.21,269.07" style="stroke:#181818;stroke-width:1.0;"/><text fill="#000000" font-family="sans-serif" font-size="13" lengthAdjust="spacing" textLength="39" x="457" y="306.4951">extend</text></g><!--reverse link Gestion categories to Exporter categories--><g id="link_Gestion categories_Exporter categories"><path d="M383.585,267.0609 C407.525,272.4209 430.06,276.74 456,280 C488.23,284.05 523.91,286.14 555.04,287.18 " fill="none" id="Gestion categories-backto-Exporter categories" style="stroke:#181818;stroke-width:1.0;stroke-dasharray:7.0,7.0;"/><polygon fill="#181818" points="377.73,265.75,385.6386,271.6197,382.6092,266.8424,387.3865,263.813,377.73,265.75" style="stroke:#181818;stroke-width:1.0;"/><text fill="#000000" font-family="sans-serif" font-size="13" lengthAdjust="spacing" textLength="39" x="457" y="276.4951">extend</text></g><!--reverse link Gestion categories to Importer categories--><g id="link_Gestion categories_Importer categories"><path d="M400.3392,242.8116 C451.2792,236.8416 513.26,229.57 564.36,223.58 " fill="none" id="Gestion categories-backto-Importer categories" style="stroke:#181818;stroke-width:1.0;stroke-dasharray:7.0,7.0;"/><polygon fill="#181818" points="394.38,243.51,403.7844,246.4352,399.346,242.928,402.8532,238.4896,394.38,243.51" style="stroke:#181818;stroke-width:1.0;"/><text fill="#000000" font-family="sans-serif" font-size="13" lengthAdjust="spacing" textLength="39" x="457" y="229.4951">extend</text></g><!--link responsableFormation to Consulter des personnels--><g id="link_responsableFormation_Consulter des personnels"><path d="M153.11,785.2 C165.83,790.22 179.12,794.77 192,798 C308.33,827.18 446.51,834.98 537.79,836.58 " fill="none" id="responsableFormation-Consulter des personnels" style="stroke:#181818;stroke-width:1.0;"/></g><!--link responsableFormation to imprimer attestation de travail--><g id="link_responsableFormation_imprimer attestation de travail"><path d="M153.22,765.01 C236.43,780.15 376.73,799.52 497,786 C520.37,783.37 545.52,778.36 567.99,773.07 " fill="none" id="responsableFormation-imprimer attestation de travail" style="stroke:#181818;stroke-width:1.0;"/></g><!--SRC=[dPF1JiCm38RlVGfhf-smFG3YWXWW3Y043u12wsNUsYIotMeIue5u3bwCj4nbqzf1A-MI-FziwxUJuqf1FJ3PjK96ZAcITqcYtgAkaU4z0J2fUePb4yMImSXU6Yzj-1abU2VcBSTRpuMfyzHAxdXFFf8ac7HhBC8aREth4vFW4b-GAqfH9h5iJDmMWVaSfe-c8bl6be9X-FhKc954i42dinFn7KhJG40Mxnpc_PBKA5hFX59hukc0uNAnWEdLnfSQ6yXGVcCoWml0dQBBph4FFgCLZOIleu5bFhRqpIvuhk6Xu7sn1yTKfI8m5H4sgb7oimyPWhAf3ENTIGvcSMhvOV1Vy97dW-bZqmVZhUk3oTRs7ZAUha_LB7Nlffo3_XfL_AxV]--></g></svg>