<?xml version="1.0" encoding="us-ascii" standalone="no"?><svg xmlns="http://www.w3.org/2000/svg" xmlns:xlink="http://www.w3.org/1999/xlink" contentStyleType="text/css" height="580px" preserveAspectRatio="none" style="width:896px;height:580px;background:#FFFFFF;" version="1.1" viewBox="0 0 896 580" width="896px" zoomAndPan="magnify"><defs/><g><!--cluster gestion_personnel.pkg_Absences--><g id="cluster_gestion_personnel.pkg_Absences"><path d="M202.5,6 L443.5,6 A3.75,3.75 0 0 1 446,8.5 L453,29.6094 L886.5,29.6094 A2.5,2.5 0 0 1 889,32.1094 L889,570.5 A2.5,2.5 0 0 1 886.5,573 L202.5,573 A2.5,2.5 0 0 1 200,570.5 L200,8.5 A2.5,2.5 0 0 1 202.5,6 " fill="none" style="stroke:#000000;stroke-width:1.5;"/><line style="stroke:#000000;stroke-width:1.5;" x1="200" x2="453" y1="29.6094" y2="29.6094"/><text fill="#000000" font-family="sans-serif" font-size="14" font-weight="bold" lengthAdjust="spacing" textLength="240" x="204" y="22.5332">gestion_personnel.pkg_Absences</text></g><g id="elem_Gestion des absences"><ellipse cx="320.7628" cy="308.1526" fill="#F1F1F1" rx="91.2628" ry="20.6526" style="stroke:#181818;stroke-width:0.5;"/><text fill="#000000" font-family="sans-serif" font-size="14" lengthAdjust="spacing" textLength="141" x="250.2628" y="311.8811">Gestion des absences</text></g><g id="elem_Naviguer par &#233;tablissement"><ellipse cx="320.9905" cy="137.8981" fill="#F1F1F1" rx="104.9905" ry="23.3981" style="stroke:#181818;stroke-width:0.5;"/><text fill="#000000" font-family="sans-serif" font-size="14" lengthAdjust="spacing" textLength="172" x="234.9905" y="141.6266">Naviguer par &#233;tablissement</text></g><g id="elem_Gestion Jour f&#233;ri&#233;"><ellipse cx="321.0785" cy="215.2157" fill="#F1F1F1" rx="79.0785" ry="18.2157" style="stroke:#181818;stroke-width:0.5;"/><text fill="#000000" font-family="sans-serif" font-size="14" lengthAdjust="spacing" textLength="112" x="263.6751" y="219.3395">Gestion Jour f&#233;ri&#233;</text></g><g id="elem_Imprimer absentisment"><ellipse cx="700.1965" cy="536.2393" fill="#F1F1F1" rx="91.6965" ry="20.7393" style="stroke:#181818;stroke-width:0.5;"/><text fill="#000000" font-family="sans-serif" font-size="14" lengthAdjust="spacing" textLength="142" x="629.1965" y="539.9678">Imprimer absentisment</text></g><g id="elem_importer des absences"><ellipse cx="700.066" cy="458.9132" fill="#F1F1F1" rx="92.566" ry="20.9132" style="stroke:#181818;stroke-width:0.5;"/><text fill="#000000" font-family="sans-serif" font-size="14" lengthAdjust="spacing" textLength="144" x="628.066" y="462.6417">importer des absences</text></g><g id="elem_Exporter des absences"><ellipse cx="700.0017" cy="382.0003" fill="#F1F1F1" rx="93.0017" ry="21.0003" style="stroke:#181818;stroke-width:0.5;"/><text fill="#000000" font-family="sans-serif" font-size="14" lengthAdjust="spacing" textLength="145" x="627.5017" y="385.7289">Exporter des absences</text></g><g id="elem_Filter par ann&#233;e"><ellipse cx="699.8525" cy="307.8705" fill="#F1F1F1" rx="74.8525" ry="17.3705" style="stroke:#181818;stroke-width:0.5;"/><text fill="#000000" font-family="sans-serif" font-size="14" lengthAdjust="spacing" textLength="101" x="646.3525" y="312.3871">Filter par ann&#233;e</text></g><g id="elem_Filter par motif"><ellipse cx="700.2113" cy="239.1423" fill="#F1F1F1" rx="71.2113" ry="16.6423" style="stroke:#181818;stroke-width:0.5;"/><text fill="#000000" font-family="sans-serif" font-size="14" lengthAdjust="spacing" textLength="91" x="651.7113" y="243.6589">Filter par motif</text></g><g id="elem_Ajouter absences"><ellipse cx="699.7877" cy="169.0575" fill="#F1F1F1" rx="78.2877" ry="18.0575" style="stroke:#181818;stroke-width:0.5;"/><text fill="#000000" font-family="sans-serif" font-size="14" lengthAdjust="spacing" textLength="110" x="643.0149" y="173.2774">Ajouter absences</text></g><g id="elem_Consulter l'historique des absences du personnel "><ellipse cx="699.806" cy="78.9612" fill="#F1F1F1" rx="172.806" ry="36.9612" style="stroke:#181818;stroke-width:0.5;"/><text fill="#000000" font-family="sans-serif" font-size="14" lengthAdjust="spacing" textLength="312" x="541.806" y="82.6897">Consulter l'historique des absences du personnel</text></g><!--entity directeur--><g id="elem_directeur"><ellipse cx="79.5" cy="170.5" fill="#F1F1F1" rx="8" ry="8" style="stroke:#181818;stroke-width:0.5;"/><path d="M79.5,178.5 L79.5,205.5 M66.5,186.5 L92.5,186.5 M79.5,205.5 L66.5,220.5 M79.5,205.5 L92.5,220.5 " fill="none" style="stroke:#181818;stroke-width:0.5;"/><text fill="#000000" font-family="sans-serif" font-size="14" lengthAdjust="spacing" textLength="58" x="50.5" y="236.5332">Directeur</text></g><!--entity responsableFormation--><g id="elem_responsableFormation"><ellipse cx="79.5" cy="283.5" fill="#F1F1F1" rx="8" ry="8" style="stroke:#181818;stroke-width:0.5;"/><path d="M79.5,291.5 L79.5,318.5 M66.5,299.5 L92.5,299.5 M79.5,318.5 L66.5,333.5 M79.5,318.5 L92.5,333.5 " fill="none" style="stroke:#181818;stroke-width:0.5;"/><text fill="#000000" font-family="sans-serif" font-size="14" lengthAdjust="spacing" textLength="147" x="6" y="349.5332">ResponsableFormation</text></g><!--link directeur to Gestion des absences--><g id="link_directeur_Gestion des absences"><path d="M108.91,213.69 C151.04,232.52 230.3,267.93 278.8,289.59 " fill="none" id="directeur-Gestion des absences" style="stroke:#181818;stroke-width:1.0;"/></g><!--link directeur to Naviguer par ?tablissement--><g id="link_directeur_Naviguer par &#233;tablissement"><path d="M108.91,193.53 C143.98,184.3 204.77,168.31 252.14,155.85 " fill="none" id="directeur-Naviguer par &#233;tablissement" style="stroke:#181818;stroke-width:1.0;"/></g><!--link directeur to Gestion Jour f?ri?--><g id="link_directeur_Gestion Jour f&#233;ri&#233;"><path d="M108.91,202.66 C142.06,204.6 198.19,207.88 244.24,210.57 " fill="none" id="directeur-Gestion Jour f&#233;ri&#233;" style="stroke:#181818;stroke-width:1.0;"/></g><!--reverse link Gestion des absences to Imprimer absentisment--><g id="link_Gestion des absences_Imprimer absentisment"><path d="M341.3617,332.9124 C372.7217,372.0524 443.79,453.46 527,497 C555.08,511.69 588.57,520.88 618.5,526.61 " fill="none" id="Gestion des absences-backto-Imprimer absentisment" style="stroke:#181818;stroke-width:1.0;stroke-dasharray:7.0,7.0;"/><polygon fill="#181818" points="337.61,328.23,340.1159,337.7547,340.7364,332.132,346.3591,332.7525,337.61,328.23" style="stroke:#181818;stroke-width:1.0;"/><text fill="#000000" font-family="sans-serif" font-size="13" lengthAdjust="spacing" textLength="39" x="457" y="447.4951">extend</text></g><!--reverse link Gestion des absences to importer des absences--><g id="link_Gestion des absences_importer des absences"><path d="M356.3594,330.671 C395.0594,355.511 460.99,395.04 527,420 C558.07,431.75 593.7,440.55 624.45,446.78 " fill="none" id="Gestion des absences-backto-importer des absences" style="stroke:#181818;stroke-width:1.0;stroke-dasharray:7.0,7.0;"/><polygon fill="#181818" points="351.31,327.43,356.7234,335.6577,355.5178,330.1308,361.0447,328.9252,351.31,327.43" style="stroke:#181818;stroke-width:1.0;"/><text fill="#000000" font-family="sans-serif" font-size="13" lengthAdjust="spacing" textLength="39" x="457" y="385.4951">extend</text></g><!--reverse link Gestion des absences to Exporter des absences--><g id="link_Gestion des absences_Exporter des absences"><path d="M396.1576,322.5559 C463.8476,335.8459 561.15,354.94 629.32,368.32 " fill="none" id="Gestion des absences-backto-Exporter des absences" style="stroke:#181818;stroke-width:1.0;stroke-dasharray:7.0,7.0;"/><polygon fill="#181818" points="390.27,321.4,398.3308,327.059,395.1763,322.3633,399.872,319.2089,390.27,321.4" style="stroke:#181818;stroke-width:1.0;"/><text fill="#000000" font-family="sans-serif" font-size="13" lengthAdjust="spacing" textLength="39" x="457" y="333.4951">extend</text></g><!--reverse link Gestion des absences to Filter par ann?e--><g id="link_Gestion des absences_Filter par ann&#233;e"><path d="M418.78,308 C483.71,308 564.02,308 624.82,308 " fill="none" id="Gestion des absences-backto-Filter par ann&#233;e" style="stroke:#181818;stroke-width:1.0;stroke-dasharray:7.0,7.0;"/><polygon fill="#181818" points="412.78,308,421.78,312,417.78,308,421.78,304,412.78,308" style="stroke:#181818;stroke-width:1.0;"/><text fill="#000000" font-family="sans-serif" font-size="13" lengthAdjust="spacing" textLength="39" x="457" y="304.4951">extend</text></g><!--reverse link Gestion des absences to Filter par motif--><g id="link_Gestion des absences_Filter par motif"><path d="M398.372,294.0198 C471.042,280.7198 576.98,261.33 643.58,249.14 " fill="none" id="Gestion des absences-backto-Filter par motif" style="stroke:#181818;stroke-width:1.0;stroke-dasharray:7.0,7.0;"/><polygon fill="#181818" points="392.47,295.1,402.0431,297.4144,397.3883,294.1999,400.6028,289.5451,392.47,295.1" style="stroke:#181818;stroke-width:1.0;"/><text fill="#000000" font-family="sans-serif" font-size="13" lengthAdjust="spacing" textLength="39" x="457" y="274.4951">extend</text></g><!--reverse link Gestion des absences to Ajouter absences--><g id="link_Gestion des absences_Ajouter absences"><path d="M362.2255,286.2203 C411.3255,259.8403 493.25,216.79 527,205 C561.28,193.03 600.85,184.41 633.39,178.61 " fill="none" id="Gestion des absences-backto-Ajouter absences" style="stroke:#181818;stroke-width:1.0;stroke-dasharray:7.0,7.0;"/><polygon fill="#181818" points="356.94,289.06,366.7613,288.3241,361.3445,286.6936,362.975,281.2768,356.94,289.06" style="stroke:#181818;stroke-width:1.0;"/><text fill="#000000" font-family="sans-serif" font-size="13" lengthAdjust="spacing" textLength="39" x="457" y="214.4951">extend</text></g><!--reverse link Gestion des absences to Consulter l'historique des absences du personnel --><g id="link_Gestion des absences_Consulter l'historique des absences du personnel "><path d="M372.2445,287.5239 C392.1945,277.9039 409.45,267.07 426,250 C446.2,229.16 437.81,214.61 456,192 C481.72,160.03 490.97,152.63 527,133 C545.69,122.82 566.59,114.24 587.2,107.12 " fill="none" id="Gestion des absences-backto-Consulter l'historique des absences du personnel " style="stroke:#181818;stroke-width:1.0;stroke-dasharray:7.0,7.0;"/><polygon fill="#181818" points="366.84,290.13,376.6841,289.8239,371.3437,287.9583,373.2093,282.6179,366.84,290.13" style="stroke:#181818;stroke-width:1.0;"/><text fill="#000000" font-family="sans-serif" font-size="13" lengthAdjust="spacing" textLength="39" x="457" y="148.4951">extend</text></g><!--link responsableFormation to Gestion des absences--><g id="link_responsableFormation_Gestion des absences"><path d="M153.01,312.18 C177.24,311.58 204.54,310.89 229.95,310.26 " fill="none" id="responsableFormation-Gestion des absences" style="stroke:#181818;stroke-width:1.0;"/></g><!--SRC=[fL9BJiCm4Dtx5BEZNJG7G6mge0WMNN21oaqcwT3uq_4OLK8SAEV8nN12-5G4Q67XXT_NibwDfO0uOAes0WKnvaBEAgLqBexXgaSmCkWmqEaoaFSOlBD1hsjSE3QwStOw7i6LyZhVwWgXmj01AuySdBLOPtvRhURhW3R704zAmKSJp6OmkNbrG95eFUYcNrHB_KXLH0Ql6Tf6KZs5W0QjJB-Dl7C9ADk6gMqwrNWNm4MMmUJMU2QJ6df2AFJPS0wu5xJ5RtOoth4a-o5vhFrw_o_xWcePFaTRspRu9wjnGkNnplc3Y_BsOISzzp8DAFQrzTc6GfeRxI8UIA68y3uY-1ITiiSc-EEMr7CwBm00]--></g></svg>